# This file uses centimeters as units for non-parametric coordinates.

mtllib LP_Bush.mtl
g default
v 1.562891 1.124993 -1.358106
v 0.431630 1.124418 0.536669
v 4.874213 3.322883 -1.223640
v 4.155966 3.834176 -1.015304
v 0.397109 1.147864 1.570863
v 0.754181 4.989102 -0.033085
v 4.800497 1.695697 -1.497169
v 2.760119 4.419317 -0.657106
v 3.273720 1.049815 -1.347652
v 0.419212 3.511860 -2.229166
v 0.588163 4.272362 -1.160204
v 1.467451 3.025896 -2.868368
v 0.059355 5.009671 0.266388
v 1.781784 1.852486 2.319839
v 2.995398 3.279875 -2.298659
v 1.033515 1.464233 2.587800
v 2.339737 1.223863 -0.119210
v 4.252438 1.711250 0.164882
v 5.345406 2.538407 -1.429015
v -1.957599 1.589088 -1.580711
v -0.981482 2.800345 3.492896
v 3.027506 3.093550 1.758558
v 0.423634 4.052197 2.349441
v 1.572837 1.374830 1.411576
v 2.125706 1.723690 -2.824265
v -1.100028 1.989347 3.369873
v -1.209480 2.357830 -2.888568
v -0.518866 1.965712 3.708717
v -0.159496 4.406410 -1.018020
v 3.739256 1.312492 -0.565947
v -0.218325 1.232910 0.487801
v 0.941498 1.161611 0.765803
v 3.396731 4.169320 0.173265
v 0.282188 2.730724 -3.202565
v 4.170929 2.086144 -2.209101
v 4.038946 1.250569 -1.457793
v -2.442861 2.804876 -1.065006
v 1.429453 3.673655 -1.640965
v 3.826713 2.107625 1.191910
v -0.731808 1.352378 2.618694
v 2.247364 1.104694 -1.798916
v 2.317331 2.816412 -2.785033
v 1.479063 4.128166 1.761194
v -2.505159 2.428019 0.048572
v 1.157546 2.118457 3.020018
v 4.073233 3.363899 -1.813793
v -1.666793 2.979157 -2.119459
v -1.639561 2.460511 2.743823
v 2.998150 3.903480 -1.511364
v 0.233735 4.760318 1.243298
v -2.213674 3.178844 0.546686
v -0.193565 3.592097 2.934478
v 4.139754 3.319557 0.803713
v -0.071393 1.536225 3.266409
v -0.464843 1.739018 -2.880884
v -0.505939 1.348805 -1.642385
v 0.498752 3.237868 -2.750141
v -1.352145 1.486001 2.057504
v 0.331571 2.170762 3.779211
v 2.938481 1.788715 -2.645893
v 0.988776 4.850702 0.750907
v 0.984613 2.566753 -3.155962
v -1.143512 1.553557 -2.241605
v 2.175676 3.624453 1.852352
v -0.892871 4.558798 0.406391
v 0.756523 3.231346 3.085029
v -1.695050 1.979500 -2.392947
v -0.741438 3.461600 -2.151689
v 0.048868 1.401818 -2.227635
v -2.197764 2.511158 -1.908209
v 1.930027 4.727171 0.136420
v 1.122453 2.010511 -3.148662
v 0.260887 1.287907 -1.251721
v 1.229103 1.310306 -2.440502
v 0.346391 2.000169 -3.197084
v 5.283660 2.706294 -0.362494
v 4.697436 3.308815 0.125409
v -0.536390 1.307327 -0.786335
v 1.949540 3.270926 -2.389094
v 3.092633 1.619067 0.925677
v 4.823054 2.453898 0.482833
v -1.121360 1.346366 -0.289742
v -0.756605 1.246424 1.213764
v 0.564118 1.591661 3.157539
v -1.748170 3.269004 1.849383
v -1.588975 3.615790 -1.096036
v 3.522621 2.583721 -2.483895
v 1.777455 2.874777 2.578282
v -2.052704 2.000024 1.237556
v 1.781567 2.507880 -3.048029
v -1.144580 3.611648 2.473665
v 0.593926 1.501107 -2.723140
v -0.729117 2.842107 -2.885831
v 1.507448 4.737582 -0.298063
v 3.185580 2.436446 1.788902
v 2.242975 4.395225 0.767522
v 5.124524 2.047601 -0.503795
v -1.406131 1.389435 -1.184322
v -2.467825 2.088371 -1.535197
v 1.997085 1.309700 0.656867
v 2.209334 1.073967 -0.598616
v -1.840606 1.542883 0.256851
v 1.377264 1.147873 -1.804233
v -2.134712 1.552821 -0.728708
vt 0.894590 0.866100
vt 1.000000 0.235207
vt 0.339380 0.879496
vt 0.792115 0.371600
vt 0.151609 0.040019
vt 0.115966 0.092557
vt 0.646699 0.189863
vt 0.639298 0.768208
vt 0.641795 0.315288
vt 0.398477 0.217998
vt 0.368031 0.173547
vt 0.426208 0.125678
vt 0.408328 0.603246
vt 0.310642 0.649614
vt 0.031811 0.462318
vt 0.639103 0.565230
vt 0.352178 0.336257
vt 0.161108 0.659117
vt 0.402234 0.870081
vt 0.872753 0.808867
vt 0.420811 0.384391
vt 0.511358 0.352098
vt 0.497907 0.434257
vt 0.513465 0.511771
vt 0.596842 0.440669
vt 0.469253 0.054937
vt 0.742252 0.880947
vt 0.817935 0.886559
vt 0.694420 0.100413
vt 0.835450 0.498361
vt 0.815464 0.644243
vt 0.869966 0.241616
vt 0.965266 0.226481
vt 0.931656 0.338674
vt 0.224188 0.820022
vt 0.810540 0.282995
vt 0.241162 0.430683
vt 0.297743 0.708381
vt 0.343702 0.703356
vt 0.327115 0.814650
vt 0.997366 0.336500
vt 0.897795 0.665888
vt 0.707850 0.766235
vt 0.758444 0.680613
vt 0.802302 0.745814
vt 0.288243 0.868236
vt 0.000007 0.382879
vt 0.112297 0.322970
vt 0.082178 0.409989
vt 0.665381 0.822950
vt 0.374063 0.001891
vt 0.719464 0.818024
vt 0.226268 0.277503
vt 0.174307 0.256645
vt 0.191469 0.157689
vt 0.487689 0.108633
vt 0.000000 0.288545
vt 0.728476 0.213696
vt 0.079620 0.262358
vt 0.789337 0.809764
vt 0.863100 0.877687
vt 0.243487 0.678724
vt 0.195120 0.735565
vt 0.504027 0.167348
vt 0.550770 0.204261
vt 0.489013 0.245467
vt 0.843694 0.426650
vt 0.231942 0.000000
vt 0.687450 0.694410
vt 0.629720 0.093005
vt 0.723015 0.574628
vt 0.370091 0.662294
vt 0.439765 0.260298
vt 0.444155 0.189117
vt 0.248606 0.051340
vt 0.599657 0.380968
vt 0.544718 0.273726
vt 0.400627 0.733157
vt 0.431398 0.811777
vt 0.458989 0.739023
vt 0.413006 0.664545
vt 0.471411 0.644157
vt 0.086924 0.602924
vt 0.464473 0.536634
vt 0.264914 0.742592
vt 0.463846 0.307154
vt 0.395579 0.290946
vt 0.782831 0.220971
vt 0.872878 0.596921
vt 0.359354 0.268164
vt 0.332799 0.136853
vt 0.577529 0.207459
vt 0.174386 0.419290
vt 0.201357 0.358825
vt 0.862147 0.344074
vt 0.789684 0.430852
vt 0.933353 0.176017
vt 0.413204 0.059033
vt 0.554048 0.121852
vt 0.296746 0.039329
vt 0.265708 0.148896
vt 0.352932 0.057000
vt 0.539395 0.307954
vt 0.517907 0.369208
vt 0.712984 0.329755
vt 0.055083 0.185234
vt 0.534448 0.590109
vt 0.388080 0.448637
vt 0.264110 0.570605
vt 0.355688 0.525035
vt 0.697717 0.396784
vt 0.703809 0.492435
vt 0.311161 0.230871
vt 0.716168 0.273267
vt 0.061554 0.538777
vt 0.746587 0.098585
vt 0.744221 0.533498
vt 0.723493 0.400320
vt 0.715840 0.603215
vt 0.723068 0.187788
vt 0.671664 0.653846
vt 0.820222 0.532932
vt 0.913174 0.450418
vt 0.962517 0.394207
vt 0.754182 0.501234
vt 0.907264 0.729021
vt 0.950059 0.818674
vt 0.545811 0.819611
vt 0.502889 0.884452
vt 0.432523 0.530911
vt 0.545794 0.732201
vt 0.261255 0.305927
vt 0.255948 0.370282
vt 0.501903 0.426567
vt 0.560108 0.659636
vt 0.217229 0.515417
vt 0.259351 0.197068
vt 0.243678 0.070886
vt 0.666677 0.031202
vt 0.694461 0.876639
vt 0.426862 0.000003
vt 0.618523 0.886543
vt 0.572263 0.872613
vt 0.554065 0.019423
vt 0.507563 0.014144
vt 0.905764 0.121655
vt 0.970202 0.098352
vt 0.833053 0.105126
vt 0.173555 0.635122
vn 0.732223 -0.178551 0.657243
vn 0.657937 0.705318 0.263905
vn 0.542609 0.540265 0.643187
vn 0.092505 0.839450 -0.535505
vn 0.040957 0.829637 -0.556799
vn 0.067629 0.833080 -0.549002
vn -0.594418 -0.442375 -0.671545
vn -0.458495 0.025164 -0.888341
vn -0.222874 -0.679287 -0.699211
vn -0.364966 0.474376 0.801104
vn 0.303048 0.135773 0.943254
vn -0.129167 0.752450 0.645860
vn -0.599275 0.758691 -0.255455
vn -0.847221 0.510548 -0.146822
vn -0.834966 0.534743 0.129929
vn 0.042192 -0.994088 0.100046
vn -0.047903 -0.998448 -0.028405
vn 0.062362 -0.926157 -0.371947
vn -0.979168 -0.107253 0.172415
vn -0.548210 -0.829840 0.104069
vn -0.906402 -0.324832 0.270037
vn -0.554241 0.830923 0.048820
vn -0.275893 0.849208 -0.450255
vn -0.041403 -0.823504 -0.565797
vn 0.110385 -0.423545 -0.899124
vn 0.056600 -0.891469 -0.449532
vn 0.398286 0.571855 -0.717182
vn 0.898148 0.162121 -0.408714
vn 0.492226 -0.192348 -0.848950
vn 0.254698 -0.885008 0.389730
vn 0.162387 -0.957678 0.237663
vn 0.285188 -0.929926 0.232175
vn 0.310223 -0.907374 0.283610
vn 0.538437 -0.448754 0.713235
vn -0.273043 0.958574 -0.081135
vn 0.296028 -0.823269 0.484351
vn 0.019765 -0.901129 0.433100
vn -0.000919 -0.994124 0.108246
vn 0.133165 -0.990967 -0.015825
vn 0.381535 -0.861626 -0.334711
vn 0.264812 0.354908 -0.896613
vn 0.379662 0.210990 -0.900744
vn 0.295158 -0.477132 -0.827784
vn 0.157325 -0.980706 0.116035
vn -0.079084 -0.996668 0.019955
vn -0.116120 -0.993234 -0.001798
vn 0.338464 0.499454 0.797489
vn 0.329705 0.760509 0.559393
vn 0.146660 0.790383 0.594798
vn 0.128783 0.666158 -0.734608
vn 0.093676 0.284096 -0.954209
vn 0.258988 0.092723 -0.961420
vn 0.240888 0.959473 0.146237
vn 0.367359 0.806688 0.462928
vn 0.441161 0.860990 0.253126
vn -0.124310 -0.966179 -0.225932
vn 0.518876 0.153626 0.840932
vn 0.479732 0.515024 0.710357
vn 0.450512 0.629357 0.633205
vn 0.163543 -0.667691 -0.726252
vn -0.025969 -0.962250 -0.270925
vn 0.632235 -0.124090 0.764775
vn 0.541624 -0.602229 0.586485
vn -0.087315 -0.987747 -0.129352
vn -0.069205 -0.996702 -0.042383
vn -0.172036 -0.981131 -0.088233
vn 0.781772 -0.594524 0.188079
vn 0.691699 0.695964 -0.192839
vn 0.198265 0.656764 -0.727566
vn 0.447358 0.872949 -0.194499
vn -0.556915 0.638544 -0.531138
vn -0.232012 -0.374972 0.897533
vn -0.487388 -0.818380 -0.304478
vn -0.257063 -0.884280 -0.389831
vn 0.034599 0.840022 -0.541448
vn 0.121042 0.803073 -0.583458
vn -0.207993 -0.945550 0.250350
vn -0.159364 -0.986466 0.038589
vn -0.587847 -0.773675 0.236355
vn -0.662663 -0.464883 0.587164
vn -0.907845 -0.018127 0.418914
vn -0.823806 0.485877 0.292006
vn -0.458217 0.778706 0.428548
vn 0.324755 -0.874412 0.360468
vn -0.672749 -0.736820 0.067117
vn -0.928886 -0.296285 -0.222230
vn 0.503416 -0.346307 0.791608
vn 0.616298 -0.739662 -0.270327
vn -0.768082 0.293437 -0.569162
vn -0.275603 0.518101 -0.809700
vn 0.182236 0.922299 -0.340815
vn -0.215749 0.873614 0.436178
vn 0.249520 0.920193 0.301637
vn -0.190422 -0.981702 0.001216
vn 0.453354 -0.821570 0.345677
vn 0.979886 0.191400 0.056474
vn 0.191620 -0.962600 0.191530
vn -0.092717 -0.338575 -0.936360
vn -0.113310 -0.990286 -0.080587
vn -0.008987 0.786756 -0.617199
vn -0.287106 0.784904 -0.549087
vn -0.114179 0.348849 -0.930197
vn 0.113981 0.849533 -0.515075
vn 0.083499 0.962507 -0.258087
s 1
g pSphere1
usemtl initialShadingGroup
f 81/4/1 77/118/2 53/105/3
f 49/7/4 79/114/5 38/9/6
f 67/10/7 27/11/8 55/12/9
f 21/13/10 59/14/11 52/110/12
f 86/16/13 37/121/14 51/135/15
f 101/127/16 1/1/17 41/20/18
f 44/21/19 102/22/20 89/23/21
f 65/24/22 29/25/23 86/16/13
f 92/26/24 72/141/25 74/145/26
f 46/119/27 19/122/28 35/31/29
f 80/32/30 17/33/31 30/34/32
f 24/146/33 80/32/30 39/36/34
f 65/24/22 13/134/35 29/25/23
f 84/38/36 54/39/37 5/40/38
f 30/34/32 9/41/39 36/124/40
f 42/43/41 87/44/42 60/45/43
f 32/46/44 5/40/38 2/3/45
f 2/3/45 5/40/38 31/19/46
f 66/47/47 43/48/48 23/49/49
f 12/50/50 79/8/5 42/43/41
f 62/140/51 12/50/50 90/52/52
f 71/53/53 96/54/54 33/55/55
f 101/127/16 41/20/18 9/126/39
f 74/145/26 69/56/56 92/26/24
f 88/57/57 22/106/58 64/59/59
f 74/28/26 25/60/60 103/61/61
f 45/62/62 14/63/63 88/149/57
f 56/64/64 78/65/65 98/66/66
f 97/67/67 19/30/28 3/125/68
f 103/144/61 69/56/56 74/145/26
f 49/7/4 15/120/69 79/114/5
f 4/138/70 33/55/55 3/68/68
f 37/121/14 86/16/13 47/71/71
f 59/14/11 28/72/72 54/39/37
f 98/66/66 20/73/73 63/74/74
f 10/111/75 11/76/76 38/9/6
f 66/109/47 59/14/11 45/62/62
f 46/29/27 15/120/69 49/7/4
f 40/78/77 31/19/46 5/40/38
f 83/79/78 40/78/77 58/80/79
f 40/78/77 26/81/80 58/80/79
f 21/13/10 48/82/81 26/81/80
f 85/107/82 48/82/81 91/84/83
f 16/85/84 5/40/38 24/35/33
f 104/86/85 44/21/19 99/87/86
f 99/87/86 20/73/73 104/86/85
f 88/116/57 14/148/63 95/88/87
f 15/69/69 46/119/27 87/44/42
f 58/80/79 48/82/81 89/131/21
f 36/124/40 7/123/88 30/34/32
f 67/10/7 70/90/89 27/11/8
f 47/113/71 27/11/8 70/90/89
f 27/11/8 47/113/71 93/91/90
f 84/38/36 5/40/38 16/85/84
f 11/76/76 10/111/75 29/25/23
f 54/39/37 40/78/77 5/40/38
f 3/139/68 46/29/27 4/70/70
f 25/60/60 41/20/18 103/61/61
f 41/20/18 36/42/40 9/126/39
f 25/60/60 36/42/40 41/20/18
f 36/42/40 60/45/43 35/31/29
f 49/7/4 8/92/91 4/70/70
f 54/39/37 28/72/72 40/78/77
f 42/43/41 90/52/52 12/50/50
f 67/10/7 20/73/73 99/87/86
f 50/93/92 43/48/48 61/94/93
f 43/48/48 50/93/92 23/49/49
f 44/21/19 51/108/15 37/17/14
f 28/72/72 59/14/11 21/13/10
f 16/85/84 45/62/62 84/38/36
f 45/62/62 16/85/84 14/63/63
f 4/138/70 8/137/91 33/55/55
f 101/2/16 30/34/32 17/33/31
f 30/34/32 101/2/16 9/41/39
f 65/136/22 50/93/92 13/37/35
f 31/19/46 83/79/78 82/129/94
f 4/70/70 46/29/27 49/7/4
f 47/113/71 70/90/89 37/17/14
f 16/85/84 24/35/33 14/63/63
f 48/82/81 85/107/82 89/131/21
f 85/83/82 91/115/83 65/136/22
f 80/32/30 18/95/95 39/36/34
f 15/69/69 87/44/42 42/43/41
f 40/78/77 28/72/72 26/81/80
f 63/74/74 56/64/64 98/66/66
f 102/128/20 82/129/94 83/79/78
f 3/117/68 19/122/28 46/119/27
f 77/118/2 76/96/96 3/125/68
f 76/96/96 81/4/1 97/67/67
f 100/97/97 32/147/44 17/33/31
f 39/36/34 53/105/3 95/88/87
f 53/105/3 39/36/34 81/4/1
f 45/62/62 88/149/57 66/109/47
f 35/31/29 7/89/88 36/42/40
f 79/8/5 15/69/69 42/43/41
f 52/15/12 65/136/22 91/115/83
f 65/136/22 52/15/12 50/93/92
f 75/98/98 92/26/24 55/12/9
f 18/95/95 30/34/32 97/67/67
f 73/99/99 56/64/64 69/56/56
f 37/17/14 99/87/86 44/21/19
f 57/142/100 12/50/50 62/140/51
f 58/80/79 26/81/80 48/82/81
f 58/80/79 102/128/20 83/79/78
f 38/9/6 79/114/5 10/111/75
f 80/32/30 100/97/97 17/33/31
f 25/60/60 60/45/43 36/42/40
f 7/123/88 97/67/67 30/34/32
f 47/113/71 68/101/101 93/91/90
f 62/51/51 34/102/102 57/100/100
f 55/12/9 63/74/74 67/10/7
f 96/54/54 64/59/59 22/106/58
f 64/59/59 96/54/54 43/48/48
f 38/9/6 8/92/91 49/7/4
f 79/8/5 57/142/100 10/143/75
f 67/10/7 99/87/86 70/90/89
f 64/59/59 43/48/48 66/47/47
f 103/61/61 41/20/18 1/1/17
f 29/25/23 68/112/101 86/16/13
f 68/112/101 29/25/23 10/111/75
f 70/90/89 99/87/86 37/17/14
f 77/5/2 3/68/68 33/55/55
f 71/53/53 8/137/91 94/132/103
f 62/51/51 72/141/25 75/98/98
f 73/99/99 69/56/56 103/144/61
f 92/26/24 75/98/98 72/141/25
f 73/99/99 78/65/65 56/64/64
f 76/96/96 97/67/67 3/125/68
f 96/54/54 61/94/93 43/48/48
f 34/102/102 93/91/90 57/100/100
f 93/91/90 34/102/102 75/98/98
f 77/118/2 81/4/1 76/96/96
f 82/77/94 104/86/85 98/66/66
f 66/109/47 52/110/12 59/14/11
f 7/89/88 35/31/29 19/122/28
f 14/148/63 24/146/33 95/88/87
f 96/54/54 6/133/104 61/94/93
f 6/133/104 96/54/54 71/53/53
f 44/21/19 89/23/21 51/108/15
f 104/86/85 102/22/20 44/21/19
f 75/98/98 27/11/8 93/91/90
f 27/11/8 75/98/98 55/12/9
f 18/95/95 81/4/1 39/36/34
f 25/60/60 74/28/26 72/27/25
f 52/15/12 23/49/49 50/93/92
f 57/100/100 93/91/90 68/101/101
f 100/97/97 24/146/33 32/147/44
f 82/77/94 98/66/66 78/65/65
f 83/79/78 31/19/46 40/78/77
f 39/36/34 95/88/87 24/146/33
f 89/23/21 85/130/82 51/108/15
f 59/14/11 84/38/36 45/62/62
f 82/77/94 102/22/20 104/86/85
f 8/92/91 38/9/6 94/103/103
f 18/95/95 97/67/67 81/4/1
f 62/51/51 75/98/98 34/102/102
f 35/31/29 60/45/43 87/44/42
f 5/40/38 32/46/44 24/35/33
f 63/74/74 69/56/56 56/64/64
f 21/13/10 26/81/80 28/72/72
f 51/135/15 65/24/22 86/16/13
f 85/83/82 65/136/22 51/18/15
f 38/9/6 11/76/76 94/103/103
f 88/57/57 64/59/59 66/47/47
f 63/74/74 20/73/73 67/10/7
f 86/16/13 68/112/101 47/71/71
f 62/140/51 90/52/52 72/27/25
f 33/55/55 8/137/91 71/53/53
f 60/45/43 90/52/52 42/43/41
f 90/52/52 60/45/43 25/60/60
f 58/80/79 89/131/21 102/128/20
f 77/5/2 33/55/55 53/6/3
f 13/37/35 50/93/92 61/94/93
f 6/133/104 13/37/35 61/94/93
f 55/12/9 69/56/56 63/74/74
f 52/110/12 91/84/83 21/13/10
f 22/58/58 95/88/87 53/105/3
f 94/132/103 6/133/104 71/53/53
f 96/54/54 22/106/58 53/6/3
f 95/88/87 22/58/58 88/116/57
f 97/67/67 7/123/88 19/30/28
f 92/26/24 69/56/56 55/12/9
f 66/47/47 23/49/49 52/15/12
f 11/76/76 29/25/23 6/104/104
f 33/55/55 96/54/54 53/6/3
f 35/31/29 87/44/42 46/119/27
f 29/25/23 13/134/35 6/104/104
f 90/52/52 25/60/60 72/27/25
f 20/73/73 98/66/66 104/86/85
f 21/13/10 91/84/83 48/82/81
f 10/75/75 57/100/100 68/101/101
f 30/34/32 18/95/95 80/32/30
f 100/97/97 80/32/30 24/146/33
f 79/8/5 12/50/50 57/142/100
f 11/76/76 6/104/104 94/103/103
f 84/38/36 59/14/11 54/39/37
